<?xml version="1.0" encoding="utf-8"?>
<svg viewBox="0 0 500 500" xmlns="http://www.w3.org/2000/svg">
	<g transform="matrix(0.573981, 0, 0, 0.573981, 98.540016, 97.539436)" style="">
		<g>
			<g>
				<path d="M368.62,17.951H23.568C10.57,17.951,0,28.524,0,41.52v309.146c0,12.996,10.57,23.568,23.568,23.568h345.053 c12.994,0,23.564-10.572,23.564-23.568V41.52C392.188,28.525,381.614,17.951,368.62,17.951z M297.56,57.528 c0-4.806,3.896-8.703,8.701-8.703h8.703c4.808,0,8.701,3.896,8.701,8.703v9.863c0,4.806-3.896,8.702-8.701,8.702h-8.703 c-4.805,0-8.701-3.896-8.701-8.702V57.528z M257.093,57.528c0-4.806,3.898-8.703,8.703-8.703h8.701 c4.805,0,8.703,3.896,8.703,8.703v9.863c0,4.806-3.898,8.702-8.703,8.702h-8.701c-4.805,0-8.703-3.896-8.703-8.702V57.528z M363.903,345.951H28.282V102.235h335.621V345.951L363.903,345.951z M364.132,67.391c0,4.806-3.896,8.702-8.701,8.702h-8.703 c-4.809,0-8.702-3.896-8.702-8.702v-9.863c0-4.806,3.896-8.703,8.702-8.703h8.703c4.806,0,8.701,3.896,8.701,8.703V67.391z"/>
				<path d="M84.185,233.284l63.084,29.336c1.631,0.755,3.367,1.138,5.162,1.138c2.338,0,4.617-0.664,6.598-1.924 c3.547-2.267,5.666-6.13,5.666-10.334v-0.322c0-4.752-2.785-9.116-7.096-11.118l-39.455-18.332l39.455-18.334 c4.311-2.004,7.096-6.367,7.096-11.117v-0.319c0-4.21-2.119-8.075-5.666-10.334c-1.961-1.253-4.246-1.916-6.605-1.916 c-1.779,0-3.563,0.391-5.16,1.133l-63.08,29.333c-4.307,2.004-7.09,6.369-7.09,11.117v0.877 C77.093,226.909,79.874,231.272,84.185,233.284z"/>
				<path d="M165.257,293.036c2.301,3.149,6.002,5.03,9.9,5.03h0.316c5.352,0,10.041-3.426,11.672-8.517L228.7,160.788 c1.192-3.716,0.531-7.818-1.771-10.973c-2.301-3.15-6.002-5.03-9.901-5.03h-0.315c-5.354,0-10.048,3.425-11.679,8.516 l-41.559,128.771C162.292,285.793,162.958,289.889,165.257,293.036z"/>
				<path d="M227.49,192.276c0,4.745,2.783,9.109,7.095,11.123l39.455,18.329l-39.455,18.33c-4.31,2.004-7.095,6.368-7.095,11.118 v0.322c0,4.205,2.117,8.068,5.668,10.336c1.974,1.258,4.254,1.924,6.595,1.924c1.793,0,3.528-0.383,5.17-1.142l63.08-29.335 c4.307-2.009,7.09-6.372,7.09-11.115v-0.877c0-4.748-2.783-9.113-7.094-11.117l-63.08-29.333 c-1.591-0.74-3.373-1.131-5.152-1.131c-2.355,0-4.643,0.661-6.604,1.912c-3.551,2.263-5.67,6.127-5.67,10.337v0.318H227.49 L227.49,192.276z"/>
			</g>
		</g>
	</g>
	<g transform="matrix(1, 0, 0, 1, 72.937202, 56.29707)"/>
	<g transform="matrix(1, 0, 0, 1, 72.937202, 56.29707)"/>
	<g transform="matrix(1, 0, 0, 1, 72.937202, 56.29707)"/>
	<g transform="matrix(1, 0, 0, 1, 72.937202, 56.29707)"/>
	<g transform="matrix(1, 0, 0, 1, 72.937202, 56.29707)"/>
	<g transform="matrix(1, 0, 0, 1, 72.937202, 56.29707)"/>
	<g transform="matrix(1, 0, 0, 1, 72.937202, 56.29707)"/>
	<g transform="matrix(1, 0, 0, 1, 72.937202, 56.29707)"/>
	<g transform="matrix(1, 0, 0, 1, 72.937202, 56.29707)"/>
	<g transform="matrix(1, 0, 0, 1, 72.937202, 56.29707)"/>
	<g transform="matrix(1, 0, 0, 1, 72.937202, 56.29707)"/>
	<g transform="matrix(1, 0, 0, 1, 72.937202, 56.29707)"/>
	<g transform="matrix(1, 0, 0, 1, 72.937202, 56.29707)"/>
	<g transform="matrix(1, 0, 0, 1, 72.937202, 56.29707)"/>
	<g transform="matrix(1, 0, 0, 1, 72.937202, 56.29707)"/>
	<g transform="matrix(2.558007, 0, 0, 2.558007, 2.548426, 2.063566)" style="">
		<path d="M190.709,180.102l-47.08-47.076c11.702-14.072,18.752-32.142,18.752-51.831c0-44.77-36.421-81.193-81.188-81.193 C36.423,0.001,0,36.424,0,81.194c0,44.767,36.423,81.188,81.193,81.188c19.688,0,37.758-7.049,51.829-18.75l47.081,47.077 c1.464,1.464,3.384,2.196,5.303,2.196c1.919,0,3.839-0.732,5.304-2.197C193.639,187.779,193.639,183.031,190.709,180.102z M15,81.194c0-36.499,29.694-66.193,66.193-66.193c36.496,0,66.188,29.694,66.188,66.193c0,36.496-29.691,66.188-66.188,66.188 C44.694,147.382,15,117.69,15,81.194z"/>
	</g>
	<g transform="matrix(2.558007, 0, 0, 2.558007, 2.548426, 2.063566)" style=""/>
	<g transform="matrix(2.558007, 0, 0, 2.558007, 2.548426, 2.063566)" style=""/>
	<g transform="matrix(2.558007, 0, 0, 2.558007, 2.548426, 2.063566)" style=""/>
	<g transform="matrix(2.558007, 0, 0, 2.558007, 2.548426, 2.063566)" style=""/>
	<g transform="matrix(2.558007, 0, 0, 2.558007, 2.548426, 2.063566)" style=""/>
	<g transform="matrix(2.558007, 0, 0, 2.558007, 2.548426, 2.063566)" style=""/>
	<g transform="matrix(2.558007, 0, 0, 2.558007, 2.548426, 2.063566)" style=""/>
	<g transform="matrix(2.558007, 0, 0, 2.558007, 2.548426, 2.063566)" style=""/>
	<g transform="matrix(2.558007, 0, 0, 2.558007, 2.548426, 2.063566)" style=""/>
	<g transform="matrix(2.558007, 0, 0, 2.558007, 2.548426, 2.063566)" style=""/>
	<g transform="matrix(2.558007, 0, 0, 2.558007, 2.548426, 2.063566)" style=""/>
	<g transform="matrix(2.558007, 0, 0, 2.558007, 2.548426, 2.063566)" style=""/>
	<g transform="matrix(2.558007, 0, 0, 2.558007, 2.548426, 2.063566)" style=""/>
	<g transform="matrix(2.558007, 0, 0, 2.558007, 2.548426, 2.063566)" style=""/>
	<g transform="matrix(2.558007, 0, 0, 2.558007, 2.548426, 2.063566)" style=""/>
</svg>